<svg width="93" height="114" viewBox="0 0 93 114" fill="none" xmlns="http://www.w3.org/2000/svg">
<g clip-path="url(#clip0_358_942)">
<path d="M45.4873 114C46.3631 114 47.7863 113.67 49.1548 112.9C80.3009 95.3577 90.9749 87.9335 90.9749 67.8614V25.7917C90.9749 20.0175 88.5114 18.2027 83.8585 16.223C77.3997 13.5283 56.5445 5.99426 50.0854 3.73956C48.6074 3.24463 47.02 2.91467 45.4873 2.91467C43.9547 2.91467 42.3672 3.35462 40.9441 3.73956C34.485 5.60933 13.5751 13.5833 7.11594 16.223C2.51795 18.1477 0 20.0175 0 25.7917V67.8614C0 87.9335 10.7286 95.3025 41.8199 112.9C43.2431 113.67 44.6115 114 45.4873 114ZM45.4873 104.047C44.6115 104.047 43.7357 103.717 42.0936 102.727C16.8046 87.3287 8.70333 82.8191 8.70333 65.8268V27.4965C8.70333 25.6267 9.03179 24.9118 10.5645 24.3069C18.8846 21.0073 35.0324 15.563 43.2978 12.2634C44.1736 11.8785 44.8852 11.7685 45.4873 11.7685C46.0895 11.7685 46.8011 11.9335 47.6769 12.2634C55.9423 15.563 71.9806 21.3923 80.4651 24.3069C81.9427 24.8568 82.2711 25.6267 82.2711 27.4965V65.8268C82.2711 82.8191 74.17 87.2735 48.8811 102.727C47.2937 103.717 46.3631 104.047 45.4873 104.047Z" fill="white"/>
<g clip-path="url(#clip1_358_942)">
<path d="M39.8465 71.4707V58.9396C39.8465 57.959 40.5077 57.3198 41.4888 57.3198H49.743C50.7455 57.3198 51.3641 57.959 51.3641 58.9396V71.4707H39.8465ZM26.7933 70.2134C26.7933 73.1757 28.5849 74.9019 31.5922 74.9019H59.6395C62.6469 74.9019 64.4171 73.1757 64.4171 70.2134V53.2919L46.885 38.6081C46.0745 37.9261 45.1146 37.9474 44.3255 38.6081L26.7933 53.2919V70.2134ZM21.9729 52.8443C22.5701 52.8443 23.0607 52.5246 23.5086 52.1624L44.8588 34.2392C45.0934 34.0474 45.3705 33.9408 45.6053 33.9408C45.8611 33.9408 46.1171 34.0474 46.3518 34.2392L67.7232 52.1624C68.1497 52.5246 68.6402 52.8443 69.2376 52.8443C70.3892 52.8443 71.0718 52.0131 71.0718 51.1394C71.0718 50.6492 70.8798 50.1377 70.3892 49.7541L48.1646 31.1063C47.3541 30.4244 46.4796 30.0834 45.6053 30.0834C44.7308 30.0834 43.8563 30.4244 43.0458 31.1063L20.8212 49.7541C20.352 50.1377 20.1387 50.6492 20.1387 51.1394C20.1387 52.0131 20.8212 52.8443 21.9729 52.8443ZM59.4903 41.5278L64.8439 46.0459V36.4343C64.8439 35.4966 64.2466 34.8998 63.3081 34.8998H61.0259C60.1088 34.8998 59.4903 35.4966 59.4903 36.4343V41.5278Z" fill="white"/>
</g>
</g>
<defs>
<clipPath id="clip0_358_942">
<rect width="93" height="114" fill="white"/>
</clipPath>
<clipPath id="clip1_358_942">
<rect width="51.7222" height="44.8611" fill="white" transform="translate(20.1387 30.0834)"/>
</clipPath>
</defs>
</svg>
